REM MD5 8f316c80367830ecbd1fd458fd82be4c
FILE "Pro Foot Contest '98 + Grand Theft Auto + Courier Crisis (France) (En,Fr,De,It).bin" BINARY
  TRACK 01 MODE2/2352
    INDEX 01 00:00:00
  TRACK 02 AUDIO
    INDEX 00 07:06:52
    INDEX 01 07:08:52
  TRACK 03 AUDIO
    INDEX 00 09:48:74
    INDEX 01 09:50:74
  TRACK 04 AUDIO
    INDEX 00 13:53:17
    INDEX 01 13:55:17
REM LEADOUT 16:56:20
